# xmcd
#
# Track frame offsets:
#	150
#	8685
#	16947
#	25852
#	35062
#	48857
#	62237
#	71780
#	86332
#	97160
#	112492
#	127782
#	141382
#	149000
#	159910
#
# Disc length: 2299 seconds
#
# Revision: 0
# Processed by: cddbd v1.5.1PL0 Copyright (c) Steve Scherf et al.
# Submitted via: dBpowerAMP V4.0
#
DISCID=d308f90f
DTITLE=Fats Domino - The Natural Collection [CD 2)
DYEAR=1900
DGENRE=R&B
TTITLE0=Be My Guest
TTITLE1=I Want To Walk you Home
TTITLE2=I'm Ready
TTITLE3=Let the Four Winds Blow
TTITLE4=When the Saints Go Marching In
TTITLE5=Heart Break Hill
TTITLE6=My Blue Heaven
TTITLE7=I'm in the Mood For Love
TTITLE8=Kansas City
TTITLE9=Lawdy Miis Clawdy
TTITLE10=So Long
TTITLE11=See See Rider
TTITLE12=Whole Lotta Loving
TTITLE13=Oh What a Price
TTITLE14=Goin' Home
EXTD=
EXTT0=
EXTT1=
EXTT2=
EXTT3=
EXTT4=
EXTT5=
EXTT6=
EXTT7=
EXTT8=
EXTT9=
EXTT10=
EXTT11=
EXTT12=
EXTT13=
EXTT14=
PLAYORDER=
